<?xml version="1.0" standalone="no"?>
<!DOCTYPE svg PUBLIC "-//W3C//DTD SVG 20010904//EN"
 "http://www.w3.org/TR/2001/REC-SVG-20010904/DTD/svg10.dtd">
<svg version="1.0" xmlns="http://www.w3.org/2000/svg"
 width="229.000000pt" height="220.000000pt" viewBox="0 0 229.000000 220.000000"
 preserveAspectRatio="xMidYMid meet">
<metadata>
Created by potrace 1.10, written by Peter Selinger 2001-2011
</metadata>
<g transform="translate(0.000000,220.000000) scale(0.100000,-0.100000)"
fill="#000000" stroke="none">
<path d="M662 1757 c-69 -70 -70 -94 -1 -163 l50 -51 67 69 66 69 -65 65 -64
64 -53 -53z m101 -129 l-53 -52 -40 39 c-22 21 -40 48 -40 60 0 11 19 40 42
63 l42 43 50 -50 51 -51 -52 -52z"/>
<path d="M1314 1609 l-200 -200 -104 106 -105 106 -68 -69 -67 -68 158 -157
c131 -130 163 -157 187 -157 24 0 65 36 253 223 123 122 230 235 239 251 20
39 11 63 -44 118 l-48 48 -201 -201z m246 125 c20 -23 30 -44 28 -60 -4 -29
-436 -469 -470 -477 -19 -5 -46 18 -169 140 l-148 146 49 50 49 51 53 -50 c29
-27 75 -70 102 -96 27 -27 54 -48 60 -48 6 0 97 85 201 190 105 104 195 190
201 190 7 0 26 -16 44 -36z"/>
<path d="M1061 1726 l-51 -52 50 -49 50 -50 50 50 49 50 -49 51 -49 51 -50
-51z m87 -17 l31 -32 -22 -28 c-12 -15 -28 -30 -36 -34 -15 -6 -71 41 -71 59
0 11 50 66 61 66 4 0 20 -14 37 -31z"/>
<path d="M444 1538 l-55 -53 201 -200 200 -200 -105 -105 -106 -106 67 -68 67
-68 155 155 c135 135 155 160 155 187 0 28 -27 59 -239 271 -174 173 -246 239
-263 239 -14 0 -44 -20 -77 -52z m333 -209 c166 -167 223 -230 223 -248 0 -17
-38 -62 -137 -162 -76 -77 -142 -139 -148 -139 -5 0 -32 20 -59 45 l-50 45 99
99 c55 55 101 105 103 111 2 6 -84 99 -192 208 l-195 197 32 33 c37 39 66 53
86 42 8 -4 115 -108 238 -231z"/>
<path d="M1624 1538 l-55 -52 68 -68 67 -68 69 67 68 68 -55 53 c-71 68 -90
68 -162 0z m143 -12 c18 -17 33 -35 33 -41 0 -14 -79 -95 -93 -95 -7 0 -33 22
-59 48 l-47 48 37 35 c58 56 75 57 129 5z"/>
<path d="M1356 1271 c-130 -131 -156 -162 -156 -187 0 -25 35 -64 238 -267
274 -274 264 -269 348 -187 l51 49 -201 200 -201 201 107 107 106 108 -68 67
-67 67 -157 -158z m254 17 c0 -5 -5 -6 -12 -2 -6 4 -8 3 -5 -3 4 -6 -34 -51
-83 -100 -50 -49 -90 -95 -90 -102 0 -8 86 -99 190 -204 105 -104 190 -193
190 -196 0 -3 -16 -23 -34 -43 -22 -24 -43 -38 -59 -38 -18 0 -77 54 -248 225
-123 124 -225 227 -227 229 -1 2 -5 13 -7 26 -3 17 25 52 142 170 l146 147 48
-49 c27 -28 49 -54 49 -60z"/>
<path d="M467 1133 l-47 -48 51 -51 50 -51 49 51 49 51 -47 48 c-25 26 -49 47
-52 47 -3 0 -27 -21 -53 -47z m91 -16 l32 -33 -34 -33 -34 -33 -36 32 -36 32
37 34 c20 19 37 34 37 34 1 0 16 -15 34 -33z"/>
<path d="M1655 1130 l-50 -50 50 -50 50 -50 50 50 50 50 -50 50 -50 50 -50
-50z m100 -38 c-3 -7 0 -10 5 -7 6 3 10 2 10 -3 0 -9 -56 -62 -65 -62 -4 0
-20 13 -38 30 l-32 29 34 35 34 35 28 -22 c15 -12 26 -28 24 -35z"/>
<path d="M843 754 c-270 -273 -265 -263 -183 -347 l49 -52 203 202 202 202
102 -107 103 -107 68 67 68 68 -155 155 c-141 141 -158 155 -190 155 -33 0
-51 -16 -267 -236z m437 76 c77 -76 140 -143 140 -147 0 -10 -90 -103 -99
-103 -4 0 -51 45 -105 100 -84 85 -101 98 -115 88 -9 -7 -98 -95 -199 -195
-100 -101 -186 -183 -191 -183 -17 0 -81 80 -81 102 0 15 70 92 227 250 186
186 233 228 255 228 22 0 56 -29 168 -140z"/>
<path d="M450 745 l-64 -65 49 -50 c41 -41 55 -50 85 -50 30 0 44 9 85 50 l49
50 -64 65 c-35 36 -67 65 -70 65 -3 0 -35 -29 -70 -65z m133 -105 c-23 -22
-52 -40 -63 -40 -11 0 -39 17 -62 38 l-41 39 52 54 51 53 53 -52 52 -53 -42
-39z"/>
<path d="M1448 553 l-68 -68 66 -66 66 -66 54 58 c30 32 54 68 54 80 0 11 -23
45 -52 75 l-53 55 -67 -68z m107 0 c48 -52 49 -74 7 -123 -20 -22 -40 -40 -47
-40 -6 0 -32 22 -59 49 l-47 48 47 52 c25 28 51 51 56 51 5 0 24 -17 43 -37z"/>
<path d="M1064 538 l-50 -53 51 -47 51 -47 49 49 50 50 -50 50 -50 50 -51 -52z
m85 -84 c-33 -34 -37 -34 -76 0 -30 26 -29 34 9 74 l33 33 33 -37 33 -37 -32
-33z"/>
</g>
</svg>
