<?xml version="1.0" standalone="no"?>
<!DOCTYPE svg PUBLIC "-//W3C//DTD SVG 20010904//EN"
 "http://www.w3.org/TR/2001/REC-SVG-20010904/DTD/svg10.dtd">
<svg version="1.0" xmlns="http://www.w3.org/2000/svg"
 width="300.000000pt" height="221.000000pt" viewBox="0 0 300.000000 221.000000"
 preserveAspectRatio="xMidYMid meet">
<metadata>
Created by potrace 1.10, written by Peter Selinger 2001-2011
</metadata>
<g transform="translate(0.000000,221.000000) scale(0.100000,-0.100000)"
fill="#000000" stroke="none">
<path d="M1443 1374 c-7 -3 -13 -16 -13 -29 0 -44 50 -60 74 -22 20 32 -22 67
-61 51z"/>
<path d="M1582 1318 c-21 -21 -14 -66 13 -84 23 -15 27 -15 50 0 29 19 33 56
9 80 -18 19 -55 21 -72 4z m52 -35 c7 -17 -12 -36 -26 -27 -4 3 -8 14 -8 25 0
23 25 25 34 2z"/>
<path d="M1285 1289 c-9 -29 15 -53 44 -44 17 5 21 13 19 33 -4 36 -53 45 -63
11z"/>
<path d="M1635 1175 c-48 -47 -19 -115 49 -115 61 0 90 77 44 120 -29 27 -64
25 -93 -5z m69 -18 c26 -19 18 -61 -12 -65 -44 -7 -67 32 -36 62 19 19 25 20
48 3z"/>
<path d="M1237 1159 c-37 -21 -8 -77 33 -64 13 4 20 15 20 30 0 29 -28 47 -53
34z"/>
<path d="M1576 1029 c-31 -24 -35 -67 -8 -97 40 -47 122 -18 122 43 0 30 -41
75 -68 75 -11 0 -31 -9 -46 -21z m63 -18 c24 -15 25 -58 1 -66 -47 -15 -79 17
-54 54 16 23 31 26 53 12z"/>
<path d="M1285 989 c-9 -29 15 -53 44 -44 17 5 21 13 19 33 -4 36 -53 45 -63
11z"/>
<path d="M1439 934 c-9 -11 -10 -20 -2 -32 15 -24 44 -27 59 -7 28 38 -27 75
-57 39z"/>
<path d="M1219 748 c0 -2 -1 -20 -2 -41 -2 -35 -1 -37 28 -36 17 1 22 3 13 6
-12 3 -18 14 -18 33 0 16 -4 32 -10 35 -5 3 -10 5 -11 3z"/>
<path d="M1280 735 c-24 -29 8 -75 44 -62 21 8 22 63 0 71 -23 9 -30 8 -44 -9z
m45 -30 c0 -28 -29 -25 -33 3 -3 19 0 23 15 20 10 -2 18 -12 18 -23z"/>
<path d="M1365 713 c-8 -20 -12 -39 -9 -42 4 -3 9 0 11 7 3 6 11 12 18 12 7 0
15 -6 18 -12 2 -7 7 -10 11 -7 7 7 -19 79 -28 79 -3 0 -13 -16 -21 -37z"/>
<path d="M1430 709 c0 -38 1 -40 28 -37 47 5 39 78 -9 78 -16 0 -19 -8 -19
-41z m43 -15 c-10 -25 -23 -15 -23 19 1 30 2 31 15 14 7 -11 11 -25 8 -33z"/>
<path d="M1505 710 c0 -29 4 -40 15 -40 11 0 15 11 15 40 1 30 -3 40 -15 40
-11 0 -15 -11 -15 -40z"/>
<path d="M1560 710 c0 -22 4 -40 9 -40 4 0 6 12 4 28 -4 26 -4 26 11 8 9 -11
16 -23 16 -28 0 -4 5 -8 10 -8 6 0 10 18 10 41 0 25 -4 38 -10 34 -6 -4 -8
-16 -5 -28 6 -21 6 -22 -9 -3 -9 11 -16 23 -16 28 0 4 -4 8 -10 8 -5 0 -10
-18 -10 -40z"/>
<path d="M1640 731 c-15 -29 4 -63 33 -59 25 3 37 38 13 38 -10 0 -13 -6 -9
-16 4 -12 2 -15 -8 -12 -8 2 -16 15 -17 28 -3 20 0 22 23 18 16 -4 24 -1 22 6
-7 20 -45 18 -57 -3z"/>
<path d="M1710 680 c0 -5 5 -10 10 -10 6 0 10 5 10 10 0 6 -4 10 -10 10 -5 0
-10 -4 -10 -10z"/>
<path d="M1740 680 c0 -5 5 -10 10 -10 6 0 10 5 10 10 0 6 -4 10 -10 10 -5 0
-10 -4 -10 -10z"/>
<path d="M1770 680 c0 -5 5 -10 10 -10 6 0 10 5 10 10 0 6 -4 10 -10 10 -5 0
-10 -4 -10 -10z"/>
</g>
</svg>
