<?xml version="1.0" encoding="iso-8859-1"?>
<!-- Generator: Adobe Illustrator 19.0.0, SVG Export Plug-In . SVG Version: 6.00 Build 0)  -->
<svg version="1.1" id="Capa_1" xmlns="http://www.w3.org/2000/svg" xmlns:xlink="http://www.w3.org/1999/xlink" x="0px" y="0px"
	 viewBox="0 0 490.288 490.288" style="enable-background:new 0 0 490.288 490.288;" xml:space="preserve">
<g>
	<path d="M197.994,40.144l68.2-39.4c3.6-2.1,8,0.5,8,4.6v21.6h42.2c46.9,0,85.1,38.2,85.1,85.1h-35.6c0-27.3-22.2-49.5-49.5-49.5
		h-42.2v21.6c0,4.1-4.4,6.7-8,4.6l-68.2-39.4C194.494,47.344,194.494,42.144,197.994,40.144z M291.794,440.944l-68.2-39.4
		c-3.6-2.1-8,0.5-8,4.6v21.6h-42.2c-27.3,0-49.5-22.2-49.5-49.5h-35.6c0,46.9,38.2,85.1,85.1,85.1h42.2v21.6c0,4.1,4.4,6.7,8,4.6
		l68.2-39.4C295.294,448.144,295.294,442.944,291.794,440.944z M346.194,224.244c-10.6,0-19.3,8.6-19.3,19.3
		c0,10.6,8.6,19.3,19.3,19.3c10.6,0,19.3-8.6,19.3-19.3C365.494,232.844,356.794,224.244,346.194,224.244z M143.994,224.244
		c-10.6,0-19.3,8.6-19.3,19.3c0,10.6,8.6,19.3,19.3,19.3c10.6,0,19.3-8.6,19.3-19.3
		C163.294,232.844,154.594,224.244,143.994,224.244z M428.194,161.944v163.2c0,17.5-14.2,31.7-31.7,31.7h-302.7
		c-17.5,0-31.7-14.2-31.7-31.7v-163.2c0-17.5,14.2-31.7,31.7-31.7h302.7C413.894,130.144,428.194,144.444,428.194,161.944z
		 M401.094,196.244c-2.5,0.6-5.2,1-7.9,1c-17.7,0-32.1-14.4-32.1-32.1c0-2.7,0.3-5.3,1-7.8h-235.8c0.4,1.9,0.6,3.9,0.6,5.9
		c0,17.7-14.4,32.1-32.1,32.1c-1.9,0-3.8-0.2-5.6-0.5v97.5c1.8-0.3,3.7-0.5,5.6-0.5c17.7,0,32.1,14.4,32.1,32.1c0,2-0.2,4-0.6,5.9
		h234.9c-0.2-1.3-0.3-2.6-0.3-4c0-17.7,14.4-32.1,32.1-32.1c2.7,0,5.4,0.4,7.9,1v-98.5H401.094z M314.594,243.544
		c0,38.3-31.2,69.5-69.5,69.5s-69.5-31.2-69.5-69.5s31.2-69.5,69.5-69.5S314.594,205.144,314.594,243.544z M280.694,228.144
		l-13.5-13.6l-31.1,30.9l-13-13.1l-13.6,13.5l13,13.1l13.5,13.6l13.6-13.5L280.694,228.144z"/>
</g>
<g>
</g>
<g>
</g>
<g>
</g>
<g>
</g>
<g>
</g>
<g>
</g>
<g>
</g>
<g>
</g>
<g>
</g>
<g>
</g>
<g>
</g>
<g>
</g>
<g>
</g>
<g>
</g>
<g>
</g>
</svg>
