<?xml version="1.0" standalone="no"?>
<!DOCTYPE svg PUBLIC "-//W3C//DTD SVG 20010904//EN"
 "http://www.w3.org/TR/2001/REC-SVG-20010904/DTD/svg10.dtd">
<svg version="1.0" xmlns="http://www.w3.org/2000/svg"
 width="255.000000pt" height="42.000000pt" viewBox="0 0 255.000000 42.000000"
 preserveAspectRatio="xMidYMid meet">
<metadata>
Created by potrace 1.10, written by Peter Selinger 2001-2011
</metadata>
<g transform="translate(0.000000,42.000000) scale(0.100000,-0.100000)"
fill="#000000" stroke="none">
<path d="M760 279 c-46 -5 -88 -13 -93 -18 -5 -5 4 -7 20 -5 57 7 -214 -79
-291 -92 -87 -15 -178 -10 -215 13 -21 13 -22 17 -8 30 8 8 37 17 63 20 33 3
45 1 35 -5 -7 -5 -10 -15 -7 -21 10 -15 78 -14 101 3 18 13 18 14 -6 27 -36
20 -180 17 -213 -4 -14 -10 -26 -24 -26 -32 0 -42 155 -67 288 -46 40 6 118
27 175 47 136 48 145 50 130 33 -16 -16 -17 -45 -3 -54 6 -4 15 7 21 25 18 51
56 63 208 68 105 3 147 1 196 -13 95 -25 123 -71 60 -95 -46 -17 -115 -10
-115 12 0 5 19 6 46 2 37 -5 46 -4 42 7 -6 18 -66 23 -104 9 l-29 -12 24 -19
c31 -25 123 -26 171 -1 33 16 37 16 70 0 49 -25 140 -24 171 1 l24 19 -29 12
c-38 14 -98 9 -104 -9 -4 -11 4 -13 36 -7 41 6 66 -6 36 -18 -42 -16 -120 1
-130 29 -10 26 24 52 90 70 48 13 92 16 192 13 141 -4 190 -18 214 -63 7 -14
17 -25 22 -25 12 0 10 34 -4 48 -17 17 -15 16 93 -22 140 -50 246 -70 349 -64
134 8 190 51 115 87 -39 20 -172 21 -204 2 -24 -13 -24 -14 -6 -27 19 -14 86
-19 98 -7 4 3 1 13 -6 21 -10 13 -6 14 37 10 26 -3 55 -13 63 -21 14 -13 13
-17 -8 -30 -72 -45 -261 -20 -479 62 -44 17 -49 20 -22 18 18 -2 29 0 25 4
-11 10 -231 29 -330 29 -92 0 -203 -22 -247 -48 -29 -17 -34 -17 -54 -4 -69
46 -271 63 -482 41z"/>
</g>
</svg>
