<?xml version="1.0" standalone="no"?>
<!DOCTYPE svg PUBLIC "-//W3C//DTD SVG 20010904//EN"
 "http://www.w3.org/TR/2001/REC-SVG-20010904/DTD/svg10.dtd">
<svg version="1.0" xmlns="http://www.w3.org/2000/svg"
 width="300.000000pt" height="150.000000pt" viewBox="0 0 300.000000 150.000000"
 preserveAspectRatio="xMidYMid meet">
<metadata>
Created by potrace 1.10, written by Peter Selinger 2001-2011
</metadata>
<g transform="translate(0.000000,150.000000) scale(0.100000,-0.100000)"
fill="#000000" stroke="none">
<path d="M845 809 c-114 -4 -149 -10 -188 -27 -54 -24 -81 -28 -54 -8 9 7 17
16 17 20 0 13 -25 5 -46 -15 -19 -17 -26 -19 -44 -9 -16 9 -25 9 -33 1 -7 -7
-90 -11 -248 -11 -148 0 -240 -4 -244 -10 -4 -7 78 -10 239 -10 186 0 245 -3
249 -12 3 -10 9 -10 26 0 28 16 46 15 61 -3 18 -22 73 -18 140 10 78 33 85 32
85 -7 0 -26 4 -33 20 -33 16 0 20 7 21 34 0 49 30 67 81 50 l38 -12 -27 -9
c-32 -11 -44 -37 -24 -56 15 -15 56 -8 56 9 0 6 -9 7 -20 4 -14 -4 -20 -2 -20
8 0 28 33 27 126 -3 146 -47 200 -41 289 30 51 41 81 52 117 45 29 -7 39 -25
13 -25 -8 0 -22 -11 -31 -25 -19 -29 -46 -34 -42 -7 4 24 -36 23 -40 -1 -8
-40 43 -61 89 -37 13 8 25 7 40 0 15 -9 24 -8 35 1 11 9 21 9 44 -1 42 -17 83
0 78 32 -2 13 -11 24 -22 26 -15 3 -18 0 -13 -17 7 -30 -12 -26 -52 10 -67 61
14 64 94 4 69 -53 99 -65 165 -65 43 0 89 9 151 31 48 17 93 28 99 24 18 -11
11 -35 -12 -35 -16 0 -19 -3 -11 -11 15 -15 55 7 51 29 -2 9 -14 22 -28 29
l-24 12 28 10 c35 14 62 14 87 0 20 -10 20 -12 4 -29 -22 -25 -12 -52 17 -48
17 2 24 11 26 31 2 15 5 27 7 27 2 0 27 -11 57 -25 61 -29 114 -32 147 -9 19
13 28 14 48 5 18 -8 29 -9 37 -1 6 6 97 10 254 10 169 0 243 3 240 11 -2 7
-72 10 -213 10 -116 0 -230 4 -255 9 -27 5 -49 5 -55 -1 -12 -12 -45 -12 -45
1 0 17 -39 32 -58 21 -14 -9 -13 -10 10 -11 15 0 30 -5 34 -11 9 -15 -35 -9
-145 21 -113 30 -293 26 -358 -8 -52 -27 -51 -27 -55 0 -2 13 -11 24 -21 26
-21 4 -49 -16 -41 -30 3 -5 12 -4 20 3 12 10 17 9 27 0 9 -10 6 -18 -16 -37
-30 -26 -57 -30 -88 -14 -25 14 -25 30 0 30 26 0 36 17 21 35 -21 25 -51 18
-63 -14 l-11 -29 -40 27 c-53 36 -85 43 -116 27 -21 -11 -30 -10 -54 2 -25 12
-34 12 -71 -2 -23 -9 -51 -26 -60 -36 -23 -25 -35 -25 -35 -1 0 43 -62 55 -68
13 -3 -17 2 -22 18 -22 13 0 20 -5 18 -12 -6 -17 -72 -22 -98 -8 -23 12 -27
50 -5 50 8 0 15 -7 15 -15 0 -8 5 -15 11 -15 6 0 9 10 7 23 -2 16 -11 23 -30
25 -16 2 -28 0 -28 -5 0 -4 -4 -14 -9 -21 -7 -11 -16 -10 -47 6 -52 26 -84 28
-249 21z m5 -19 c0 -12 -45 -24 -59 -16 -5 3 -41 -5 -79 -19 -38 -14 -78 -25
-89 -25 -38 0 -33 14 9 26 24 6 68 18 98 27 63 18 120 21 120 7z m280 -40 c56
-26 94 -38 105 -33 13 5 16 3 10 -6 -12 -20 -80 -7 -189 37 -53 22 -100 43
-104 47 -19 21 101 -10 178 -45z m920 43 c-1 -20 -250 -108 -250 -88 0 9 158
82 190 88 42 7 60 7 60 0z m279 -29 c85 -25 89 -27 58 -32 -15 -2 -56 6 -90
17 -34 11 -73 21 -86 23 -14 2 -26 8 -28 14 -4 13 56 4 146 -22z m-1809 -14
c0 -5 -4 -10 -10 -10 -5 0 -10 5 -10 10 0 6 5 10 10 10 6 0 10 -4 10 -10z
m1000 -5 c11 -13 8 -15 -13 -15 -19 0 -25 4 -21 15 4 8 10 15 14 15 4 0 13 -7
20 -15z m980 5 c0 -5 -4 -10 -10 -10 -5 0 -10 5 -10 10 0 6 5 10 10 10 6 0 10
-4 10 -10z m-1673 -22 c-3 -8 -6 -5 -6 6 -1 11 2 17 5 13 3 -3 4 -12 1 -19z
m1359 -5 c-10 -10 -19 5 -10 18 6 11 8 11 12 0 2 -7 1 -15 -2 -18z"/>
</g>
</svg>
